<svg width="17" height="17" viewBox="0 0 17 17" fill="none" xmlns="http://www.w3.org/2000/svg">
<path d="M15.3334 6.11661V2.89477C15.3334 1.89416 14.8854 1.48965 13.7724 1.48965H10.9444C9.83142 1.48965 9.38342 1.89416 9.38342 2.89477V6.10951C9.38342 7.11722 9.83142 7.51463 10.9444 7.51463H13.7724C14.8854 7.52172 15.3334 7.11722 15.3334 6.11661Z" stroke="#737779" stroke-width="1.5" stroke-linecap="round" stroke-linejoin="round"/>
<path d="M15.3334 14.1002V11.2332C15.3334 10.1049 14.8854 9.65071 13.7724 9.65071H10.9444C9.83142 9.65071 9.38342 10.1049 9.38342 11.2332V14.1002C9.38342 15.2286 9.83142 15.6828 10.9444 15.6828H13.7724C14.8854 15.6828 15.3334 15.2286 15.3334 14.1002Z" stroke="#737779" stroke-width="1.5" stroke-linecap="round" stroke-linejoin="round"/>
<path d="M7.28337 6.11661V2.89477C7.28337 1.89416 6.83537 1.48965 5.72237 1.48965H2.89437C1.78137 1.48965 1.33337 1.89416 1.33337 2.89477V6.10951C1.33337 7.11722 1.78137 7.51463 2.89437 7.51463H5.72237C6.83537 7.52172 7.28337 7.11722 7.28337 6.11661Z" stroke="#737779" stroke-width="1.5" stroke-linecap="round" stroke-linejoin="round"/>
<path d="M7.28337 14.1002V11.2332C7.28337 10.1049 6.83537 9.65071 5.72237 9.65071H2.89437C1.78137 9.65071 1.33337 10.1049 1.33337 11.2332V14.1002C1.33337 15.2286 1.78137 15.6828 2.89437 15.6828H5.72237C6.83537 15.6828 7.28337 15.2286 7.28337 14.1002Z" stroke="#737779" stroke-width="1.5" stroke-linecap="round" stroke-linejoin="round"/>
</svg>
