<svg width="48" height="26" viewBox="0 0 48 26" fill="none" xmlns="http://www.w3.org/2000/svg">
<g filter="url(#filter0_d_465_89)">
<rect x="4" y="2" width="40" height="18" rx="9" fill="white"/>
</g>
<path d="M16 10.8184C16 10.3079 16.1732 9.87956 16.5195 9.5332C16.8659 9.17773 17.3353 9 17.9277 9C18.5293 9 18.9987 9.17773 19.3359 9.5332C19.6823 9.87956 19.8555 10.3079 19.8555 10.8184C19.8555 11.3288 19.6823 11.7572 19.3359 12.1035C18.9987 12.4499 18.5293 12.623 17.9277 12.623C17.3353 12.623 16.8659 12.4499 16.5195 12.1035C16.1732 11.7572 16 11.3288 16 10.8184Z" fill="#0E1013"/>
<path d="M22.113 10.8184C22.113 10.3079 22.2861 9.87956 22.6325 9.5332C22.9789 9.17773 23.4483 9 24.0407 9C24.6423 9 25.1117 9.17773 25.4489 9.5332C25.7953 9.87956 25.9684 10.3079 25.9684 10.8184C25.9684 11.3288 25.7953 11.7572 25.4489 12.1035C25.1117 12.4499 24.6423 12.623 24.0407 12.623C23.4483 12.623 22.9789 12.4499 22.6325 12.1035C22.2861 11.7572 22.113 11.3288 22.113 10.8184Z" fill="#0E1013"/>
<path d="M28.2259 10.8184C28.2259 10.3079 28.3991 9.87956 28.7455 9.5332C29.0918 9.17773 29.5612 9 30.1537 9C30.7552 9 31.2246 9.17773 31.5619 9.5332C31.9082 9.87956 32.0814 10.3079 32.0814 10.8184C32.0814 11.3288 31.9082 11.7572 31.5619 12.1035C31.2246 12.4499 30.7552 12.623 30.1537 12.623C29.5612 12.623 29.0918 12.4499 28.7455 12.1035C28.3991 11.7572 28.2259 11.3288 28.2259 10.8184Z" fill="#0E1013"/>
<defs>
<filter id="filter0_d_465_89" x="0" y="0" width="48" height="26" filterUnits="userSpaceOnUse" color-interpolation-filters="sRGB">
<feFlood flood-opacity="0" result="BackgroundImageFix"/>
<feColorMatrix in="SourceAlpha" type="matrix" values="0 0 0 0 0 0 0 0 0 0 0 0 0 0 0 0 0 0 127 0" result="hardAlpha"/>
<feOffset dy="2"/>
<feGaussianBlur stdDeviation="2"/>
<feComposite in2="hardAlpha" operator="out"/>
<feColorMatrix type="matrix" values="0 0 0 0 0.0164931 0 0 0 0 0.0515625 0 0 0 0 0.104167 0 0 0 0.5 0"/>
<feBlend mode="normal" in2="BackgroundImageFix" result="effect1_dropShadow_465_89"/>
<feBlend mode="normal" in="SourceGraphic" in2="effect1_dropShadow_465_89" result="shape"/>
</filter>
</defs>
</svg>
