<svg width="30" height="30" viewBox="0 0 30 30" fill="none" xmlns="http://www.w3.org/2000/svg">
<circle cx="15" cy="15" r="15" fill="#0E1013"/>
<path d="M21 21.5V20C21 19.2044 20.6839 18.4413 20.1213 17.8787C19.5587 17.3161 18.7956 17 18 17H12C11.2044 17 10.4413 17.3161 9.87868 17.8787C9.31607 18.4413 9 19.2044 9 20V21.5" stroke="white" stroke-width="2" stroke-linecap="round" stroke-linejoin="round"/>
<path d="M15 14C16.6569 14 18 12.6569 18 11C18 9.34315 16.6569 8 15 8C13.3431 8 12 9.34315 12 11C12 12.6569 13.3431 14 15 14Z" stroke="white" stroke-width="2" stroke-linecap="round" stroke-linejoin="round"/>
</svg>
