<svg width="43" height="10" viewBox="0 0 43 10" fill="none" xmlns="http://www.w3.org/2000/svg">
<path d="M42.1613 1.19377C42.1613 0.537343 41.6292 0.00520635 40.9727 0.00520635C40.3163 0.00520635 39.7842 0.537343 39.7842 1.19377C39.7842 1.85019 40.3163 2.38232 40.9727 2.38232C41.6292 2.38232 42.1613 1.85019 42.1613 1.19377Z" fill="#FF1856"/>
<path d="M34.2033 1.19377C34.2033 0.537343 33.6712 0.00520635 33.0147 0.00520635C32.3583 0.00520635 31.8262 0.537343 31.8262 1.19377C31.8262 1.85019 32.3583 2.38232 33.0147 2.38232C33.6712 2.38232 34.2033 1.85019 34.2033 1.19377Z" fill="#FF1856"/>
<path d="M26.2448 1.19377C26.2448 0.537343 25.7127 0.00520635 25.0562 0.00520635C24.3998 0.00520635 23.8677 0.537343 23.8677 1.19377C23.8677 1.85019 24.3998 2.38232 25.0562 2.38232C25.7127 2.38232 26.2448 1.85019 26.2448 1.19377Z" fill="#FF1856"/>
<path d="M17.1046 2.37694C17.3397 2.37694 17.5695 2.30724 17.7649 2.17664C17.9604 2.04604 18.1127 1.86041 18.2027 1.64323C18.2926 1.42604 18.3162 1.18706 18.2703 0.956507C18.2244 0.725949 18.1112 0.514169 17.945 0.347946C17.7788 0.181723 17.567 0.0685222 17.3365 0.0226612C17.1059 -0.0231996 16.8669 0.000340939 16.6497 0.0903003C16.4326 0.180259 16.2469 0.332604 16.1163 0.528061C15.9857 0.723519 15.916 0.953309 15.916 1.18838C15.9153 1.34467 15.9456 1.49955 16.005 1.64407C16.0645 1.7886 16.152 1.91991 16.2626 2.03042C16.3731 2.14093 16.5044 2.22845 16.6489 2.28793C16.7934 2.3474 16.9483 2.37766 17.1046 2.37694Z" fill="#FF1856"/>
<path d="M9.14658 2.37694C9.38166 2.37694 9.61145 2.30724 9.80691 2.17664C10.0024 2.04604 10.1547 1.86041 10.2447 1.64323C10.3346 1.42604 10.3582 1.18706 10.3123 0.956507C10.2664 0.725949 10.1532 0.514169 9.98702 0.347946C9.8208 0.181723 9.60901 0.0685222 9.37845 0.0226612C9.1479 -0.0231996 8.90892 0.000340939 8.69174 0.0903003C8.47456 0.180259 8.28893 0.332604 8.15833 0.528061C8.02773 0.723519 7.95802 0.953309 7.95802 1.18838C7.9573 1.34467 7.98756 1.49955 8.04704 1.64407C8.10652 1.7886 8.19403 1.91991 8.30454 2.03042C8.41506 2.14093 8.54637 2.22845 8.69089 2.28793C8.83542 2.3474 8.9903 2.37766 9.14658 2.37694Z" fill="#FF1856"/>
<path d="M2.37712 1.19377C2.37712 0.537343 1.84498 0.00520635 1.18856 0.00520635C0.532136 0.00520635 0 0.537343 0 1.19377C0 1.85019 0.532136 2.38232 1.18856 2.38232C1.84498 2.38232 2.37712 1.85019 2.37712 1.19377Z" fill="#FF1856"/>
<path d="M40.9727 9.99999C41.2091 10.0011 41.4405 9.93194 41.6375 9.8014C41.8346 9.67086 41.9885 9.48476 42.0797 9.26668C42.1709 9.04861 42.1953 8.80838 42.1498 8.57642C42.1044 8.34446 41.9911 8.13121 41.8243 7.96369C41.6576 7.79617 41.4448 7.68192 41.2131 7.63541C40.9813 7.5889 40.741 7.61223 40.5225 7.70244C40.304 7.79265 40.1172 7.94567 39.9858 8.14213C39.8544 8.33859 39.7842 8.56965 39.7842 8.80602C39.7835 8.96256 39.8137 9.11769 39.8731 9.26252C39.9325 9.40735 40.02 9.53901 40.1304 9.64996C40.2408 9.7609 40.3721 9.84893 40.5167 9.90899C40.6612 9.96906 40.8162 9.99999 40.9727 9.99999Z" fill="#FF1856"/>
<path d="M33.0147 9.99999C33.2511 10.0011 33.4825 9.93194 33.6795 9.8014C33.8766 9.67086 34.0305 9.48476 34.1217 9.26668C34.2129 9.04861 34.2373 8.80838 34.1918 8.57642C34.1463 8.34446 34.0331 8.13121 33.8663 7.96369C33.6995 7.79617 33.4868 7.68192 33.2551 7.63541C33.0233 7.5889 32.783 7.61223 32.5645 7.70244C32.346 7.79265 32.1592 7.94567 32.0278 8.14213C31.8963 8.33859 31.8262 8.56965 31.8262 8.80602C31.8262 9.12175 31.9512 9.42462 32.174 9.64837C32.3967 9.87213 32.699 9.99856 33.0147 9.99999Z" fill="#FF1856"/>
<path d="M25.0616 10C25.2978 10 25.5286 9.92997 25.725 9.79877C25.9213 9.66758 26.0743 9.48111 26.1647 9.26295C26.2551 9.04478 26.2787 8.80471 26.2327 8.5731C26.1866 8.3415 26.0729 8.12875 25.9059 7.96177C25.7389 7.79479 25.5262 7.68108 25.2946 7.63501C25.063 7.58894 24.8229 7.61259 24.6047 7.70296C24.3866 7.79332 24.2001 7.94636 24.0689 8.1427C23.9377 8.33905 23.8677 8.56989 23.8677 8.80604C23.8677 9.12269 23.9935 9.42638 24.2174 9.65029C24.4413 9.8742 24.745 10 25.0616 10Z" fill="#FF1856"/>
<path d="M17.1046 9.99999C17.341 10.0011 17.5723 9.93194 17.7694 9.8014C17.9664 9.67086 18.1203 9.48476 18.2115 9.26668C18.3027 9.04861 18.3271 8.80838 18.2817 8.57642C18.2362 8.34446 18.1229 8.13121 17.9562 7.96369C17.7894 7.79617 17.5767 7.68192 17.3449 7.63541C17.1132 7.5889 16.8728 7.61223 16.6543 7.70244C16.4359 7.79265 16.2491 7.94567 16.1176 8.14213C15.9862 8.33859 15.916 8.56965 15.916 8.80602C15.9153 8.96256 15.9455 9.11769 16.0049 9.26252C16.0644 9.40735 16.1518 9.53901 16.2622 9.64996C16.3727 9.7609 16.5039 9.84893 16.6485 9.90899C16.7931 9.96906 16.948 9.99999 17.1046 9.99999Z" fill="#FF1856"/>
<path d="M9.14658 9.99999C9.38295 10.0011 9.61432 9.93194 9.81138 9.8014C10.0084 9.67086 10.1623 9.48476 10.2535 9.26668C10.3447 9.04861 10.3691 8.80838 10.3237 8.57642C10.2782 8.34446 10.1649 8.13121 9.99815 7.96369C9.83139 7.79617 9.61866 7.68192 9.38691 7.63541C9.15516 7.5889 8.91481 7.61223 8.69633 7.70244C8.47785 7.79265 8.29106 7.94567 8.15962 8.14213C8.02819 8.33859 7.95802 8.56965 7.95802 8.80602C7.95731 8.96256 7.98753 9.11769 8.04694 9.26252C8.10635 9.40735 8.19379 9.53901 8.30423 9.64996C8.41467 9.7609 8.54593 9.84893 8.69049 9.90899C8.83504 9.96906 8.99004 9.99999 9.14658 9.99999Z" fill="#FF1856"/>
<path d="M1.19396 10C1.4301 10 1.66094 9.92997 1.85729 9.79877C2.05364 9.66758 2.20667 9.48111 2.29704 9.26295C2.38741 9.04478 2.41105 8.80471 2.36498 8.5731C2.31891 8.3415 2.2052 8.12875 2.03822 7.96177C1.87124 7.79479 1.6585 7.68108 1.42689 7.63501C1.19529 7.58894 0.95522 7.61259 0.737052 7.70296C0.518884 7.79332 0.332413 7.94636 0.201219 8.1427C0.0700244 8.33905 0 8.56989 0 8.80604C0 9.12269 0.125792 9.42638 0.349703 9.65029C0.573614 9.8742 0.877303 10 1.19396 10Z" fill="#FF1856"/>
</svg>
