<svg width="66" height="54" viewBox="0 0 66 54" fill="none" xmlns="http://www.w3.org/2000/svg">
<path d="M65.8184 0V17.75C65.8184 24.5833 64.6103 30.9167 62.1941 36.75C59.5921 42.5833 55.2244 48.3333 49.0911 54L38.2184 46.75C43.0507 41.9167 46.3961 37.5 48.2547 33.5C49.9274 29.6667 50.7638 25.5833 50.7638 21.25L57.4547 25.5H37.382V0H65.8184ZM28.4365 0V17.75C28.4365 24.5833 27.2285 30.9167 24.8123 36.75C22.2103 42.5833 17.8426 48.3333 11.7093 54L0.836533 46.75C5.66885 41.9167 9.01432 37.5 10.8729 33.5C12.5456 29.6667 13.382 25.5833 13.382 21.25L20.0729 25.5H0.000175476V0H28.4365Z" fill="#0E1013" fill-opacity="0.06"/>
</svg>
