<svg width="14" height="16" viewBox="0 0 14 16" fill="none" xmlns="http://www.w3.org/2000/svg">
<path d="M11 5.00001C12.1046 5.00001 13 4.10457 13 3C13 1.89543 12.1046 1 11 1C9.89543 1 9 1.89543 9 3C9 4.10457 9.89543 5.00001 11 5.00001Z" stroke="white" stroke-width="1.5" stroke-linecap="round" stroke-linejoin="round"/>
<path d="M3 9.66694C4.10457 9.66694 5.00001 8.77151 5.00001 7.66693C5.00001 6.56236 4.10457 5.66693 3 5.66693C1.89543 5.66693 1 6.56236 1 7.66693C1 8.77151 1.89543 9.66694 3 9.66694Z" stroke="white" stroke-width="1.5" stroke-linecap="round" stroke-linejoin="round"/>
<path d="M11 14.3336C12.1046 14.3336 13 13.4381 13 12.3336C13 11.229 12.1046 10.3336 11 10.3336C9.89543 10.3336 9 11.229 9 12.3336C9 13.4381 9.89543 14.3336 11 14.3336Z" stroke="white" stroke-width="1.5" stroke-linecap="round" stroke-linejoin="round"/>
<path d="M4.72656 8.67334L9.2799 11.3267" stroke="white" stroke-width="1.5" stroke-linecap="round" stroke-linejoin="round"/>
<path d="M9.27324 4.00671L4.72656 6.66005" stroke="white" stroke-width="1.5" stroke-linecap="round" stroke-linejoin="round"/>
</svg>
