<svg width="20" height="20" viewBox="0 0 20 20" fill="none" xmlns="http://www.w3.org/2000/svg">
<path d="M10 19C14.9706 19 19 14.9706 19 10C19 5.02944 14.9706 1 10 1C5.02944 1 1 5.02944 1 10C1 14.9706 5.02944 19 10 19Z" stroke="#1D72FF" stroke-width="1.5" stroke-linecap="round" stroke-linejoin="round"/>
<path d="M6.40063 1.90002H7.30063C5.54563 7.15602 5.54563 12.844 7.30063 18.1H6.40063" stroke="#1D72FF" stroke-width="1.5" stroke-linecap="round" stroke-linejoin="round"/>
<path d="M12.6992 1.90002C14.4542 7.15602 14.4542 12.844 12.6992 18.1" stroke="#1D72FF" stroke-width="1.5" stroke-linecap="round" stroke-linejoin="round"/>
<path d="M1.90039 13.6V12.7C7.15639 14.455 12.8444 14.455 18.1004 12.7V13.6" stroke="#1D72FF" stroke-width="1.5" stroke-linecap="round" stroke-linejoin="round"/>
<path d="M1.90039 7.29995C7.15639 5.54495 12.8444 5.54495 18.1004 7.29995" stroke="#1D72FF" stroke-width="1.5" stroke-linecap="round" stroke-linejoin="round"/>
</svg>
